<?xml version="1.0" standalone="yes"?>
<svg xmlns="http://www.w3.org/2000/svg" width="422" height="286">
<!--<path style="fill:#8cb8c7; stroke:none;" d="M207 37C208.797 37 208.521 36.9857 210 36L212 41C212.405 38.3103 211.225 36.4442 210 34C208.077 34.9015 208.001 35.0762 207 37z"/>-->
<path style="fill:#52d8ef; stroke:none;" d="M77 263C84.9983 263 93.0023 262.909 101 263.004C104.338 263.043 108.729 264.384 111.816 262.782C115.924 260.648 118.214 254.88 120.255 251C124.849 242.268 130.017 233.964 134.38 225.095C148.908 195.563 169.135 169.171 184.458 140C189.746 129.933 194.418 120.213 200.755 110.755C203.952 105.983 204.694 101.026 210 98C214.052 107.08 220.375 115.563 225.365 124.211C238.117 146.308 250.613 168.676 263.08 190.995C267.299 198.549 272.119 205.761 276.486 213.285C278.767 217.216 279.352 221.423 284 223C284.705 233.608 293.877 243.831 298.781 253C300.679 256.548 303.041 261.727 307.093 263.218C310.102 264.326 313.879 263.091 317 263.015C324.991 262.819 333.007 263 341 263C339.367 257.048 334.314 251.259 331.028 245.972C329.461 243.452 329.246 240.534 327.75 238.028C324.275 232.208 319.995 226.733 316.611 220.972C314.757 217.816 311.429 206.634 308 209C306.84 203.046 302.928 198.804 302 193C298.591 190.92 297.838 187.319 296.066 183.845C293.141 178.111 289.604 172.74 286.627 167.015C280.249 154.752 272.81 141.806 265.306 130.285C260.559 122.997 254.165 114.515 252 106C248.456 103.855 247.342 99.969 245.366 96.4244C241.597 89.6637 235.905 82.4924 234 75C229.695 72.6722 229.306 68.6216 226.947 64.6651C221.264 55.1362 215.522 45.6191 210 36C203.625 38.7423 201.149 46.3878 197.615 52.0394C193.839 58.0789 191.187 64.7382 187.854 70.9606C182.803 80.3914 176.157 88.9999 171.34 98.7006C168.691 104.036 164.794 108.815 161.91 114.039C153.707 128.906 145.143 143.524 136.329 158.09C125.436 176.093 116.179 194.827 105.287 212.804C98.7161 223.649 93.042 234.916 86.794 245.95C83.6149 251.564 79.1622 256.933 77 263z"/>
<!--<path style="fill:#8cb8c7; stroke:none;" d="M214.333 42.6667C214.278 42.7222 214.222 43.7778 214.667 43.3333C214.722 43.2777 214.778 42.2223 214.333 42.6667M201.333 46.6667C201.278 46.7222 201.222 47.7778 201.667 47.3333C201.722 47.2778 201.778 46.2222 201.333 46.6667M216.333 46.6667C216.278 46.7222 216.222 47.7778 216.667 47.3333C216.722 47.2778 216.778 46.2222 216.333 46.6667M218.333 49.6667C218.278 49.7222 218.222 50.7778 218.667 50.3333C218.722 50.2777 218.778 49.2222 218.333 49.6667M219 51C219.406 53.0924 219.217 53.0197 221 54C220.309 52.6116 220.015 52.1393 219 51M221 54L222 58C222.393 56.076 222.146 55.6405 221 54M223 58L224 62C224.393 60.076 224.146 59.6404 223 58M193.333 60.6667C193.278 60.7222 193.222 61.7778 193.667 61.3333C193.722 61.2778 193.778 60.2222 193.333 60.6667M226.333 63.6667C226.278 63.7222 226.222 64.7778 226.667 64.3333C226.722 64.2777 226.778 63.2223 226.333 63.6667M228.333 66.6667C228.278 66.7222 228.222 67.7778 228.667 67.3333C228.722 67.2777 228.778 66.2222 228.333 66.6667M188 68L185 75C187.401 72.8849 188.85 71.22 188 68M229 68C229.307 70.1227 229.382 70.686 231 72C230.436 70.248 230.081 69.458 229 68M231 72C231.406 74.0924 231.217 74.0198 233 75C232.316 73.42 232.195 73.2228 231 72M234.333 77.6667C234.278 77.7222 234.222 78.7778 234.667 78.3333C234.722 78.2777 234.778 77.2223 234.333 77.6667M181.333 80.6667C181.278 80.7222 181.222 81.7778 181.667 81.3333C181.722 81.2777 181.778 80.2223 181.333 80.6667M179.333 84.6667C179.278 84.7222 179.222 85.7778 179.667 85.3333C179.722 85.2778 179.778 84.2222 179.333 84.6667M238.333 84.6667C238.278 84.7222 238.222 85.7778 238.667 85.3333C238.722 85.2777 238.778 84.2223 238.333 84.6667M240.333 87.6667C240.278 87.7222 240.222 88.7778 240.667 88.3333C240.722 88.2778 240.778 87.2222 240.333 87.6667M175.333 90.6667C175.278 90.7222 175.222 91.7778 175.667 91.3333C175.722 91.2777 175.778 90.2223 175.333 90.6667M242.333 91.6667C242.278 91.7222 242.222 92.7778 242.667 92.3333C242.722 92.2778 242.778 91.2222 242.333 91.6667M244.333 94.6667C244.278 94.7222 244.222 95.7778 244.667 95.3333C244.722 95.2777 244.778 94.2223 244.333 94.6667M171 97L171 100C171.696 98.4463 171.696 98.5537 171 97M246.333 98.6667C246.278 98.7222 246.222 99.7778 246.667 99.3333C246.722 99.2777 246.778 98.2223 246.333 98.6667M206.333 99.6667C206.278 99.7222 206.222 100.778 206.667 100.333C206.722 100.278 206.778 99.2222 206.333 99.6667M169.333 101.667C169.278 101.722 169.222 102.778 169.667 102.333C169.722 102.278 169.778 101.222 169.333 101.667M205 101C204.014 102.479 204 102.203 204 104C205.289 102.557 205.401 102.766 205 101M248.333 101.667C248.278 101.722 248.222 102.778 248.667 102.333C248.722 102.278 248.778 101.222 248.333 101.667M249 103C249.406 105.092 249.217 105.02 251 106C250.309 104.612 250.015 104.139 249 103M214.333 104.667C214.278 104.722 214.222 105.778 214.667 105.333C214.722 105.278 214.778 104.222 214.333 104.667M202.333 106.667C202.278 106.722 202.222 107.778 202.667 107.333C202.722 107.278 202.778 106.222 202.333 106.667M215 106L216 110C216.553 107.992 216.303 107.668 215 106M165.333 108.667C165.278 108.722 165.222 109.778 165.667 109.333C165.722 109.278 165.778 108.222 165.333 108.667M252.333 108.667C252.278 108.722 252.222 109.778 252.667 109.333C252.722 109.278 252.778 108.222 252.333 108.667M197 113L196 118C197.656 116.314 198.251 115.254 199 113L197 113M219.333 113.667C219.278 113.722 219.222 114.778 219.667 114.333C219.722 114.278 219.778 113.222 219.333 113.667M256.333 115.667C256.278 115.722 256.222 116.778 256.667 116.333C256.722 116.278 256.778 115.222 256.333 115.667M159 118L158 122C159.303 120.332 159.553 120.008 159 118M195.333 118.667C195.278 118.722 195.222 119.778 195.667 119.333C195.722 119.278 195.778 118.222 195.333 118.667M258 119C258.684 120.58 258.805 120.777 260 122C259.316 120.42 259.195 120.223 258 119M194.333 120.667C194.278 120.722 194.222 121.778 194.667 121.333C194.722 121.278 194.778 120.222 194.333 120.667M223.333 120.667C223.278 120.722 223.222 121.778 223.667 121.333C223.722 121.278 223.778 120.222 223.333 120.667M192.333 123.667C192.278 123.722 192.222 124.778 192.667 124.333C192.722 124.278 192.778 123.222 192.333 123.667M225 123L225 126C225.696 124.446 225.696 124.554 225 123M261.333 124.667C261.278 124.722 261.222 125.778 261.667 125.333C261.722 125.278 261.778 124.222 261.333 124.667M191 125C189.805 127.166 189.309 128.553 189 131C190.631 128.957 191.444 127.583 191 125M262 126C262.684 127.58 262.805 127.777 264 129C263.316 127.42 263.195 127.223 262 126M227.333 127.667C227.278 127.722 227.222 128.778 227.667 128.333C227.722 128.278 227.778 127.222 227.333 127.667M228.333 129.667C228.278 129.722 228.222 130.778 228.667 130.333C228.722 130.278 228.778 129.222 228.333 129.667M188 131C187.014 132.479 187 132.203 187 134C188.289 132.557 188.401 132.766 188 131M151.333 132.667C151.278 132.722 151.222 133.778 151.667 133.333C151.722 133.278 151.778 132.222 151.333 132.667M186.333 134.667C186.278 134.722 186.222 135.778 186.667 135.333C186.722 135.278 186.778 134.222 186.333 134.667M267 134C267.651 136.434 268.16 137.283 270 139C269.199 136.896 268.503 135.663 267 134M149.333 136.667C149.278 136.722 149.222 137.778 149.667 137.333C149.722 137.278 149.778 136.222 149.333 136.667M233.333 138.667C233.278 138.722 233.222 139.778 233.667 139.333C233.722 139.278 233.778 138.222 233.333 138.667M147.333 139.667C147.278 139.722 147.222 140.778 147.667 140.333C147.722 140.278 147.778 139.222 147.333 139.667M270.333 139.667C270.278 139.722 270.222 140.778 270.667 140.333C270.722 140.278 270.778 139.222 270.333 139.667M235.333 141.667C235.278 141.722 235.222 142.778 235.667 142.333C235.722 142.278 235.778 141.222 235.333 141.667M145.333 143.667C145.278 143.722 145.222 144.778 145.667 144.333C145.722 144.278 145.778 143.222 145.333 143.667M272.333 143.667C272.278 143.722 272.222 144.778 272.667 144.333C272.722 144.278 272.778 143.222 272.333 143.667M143.333 146.667C143.278 146.722 143.222 147.778 143.667 147.333C143.722 147.278 143.778 146.222 143.333 146.667M274.333 146.667C274.278 146.722 274.222 147.778 274.667 147.333C274.722 147.278 274.778 146.222 274.333 146.667M178 148C177.014 149.479 177 149.203 177 151C178.289 149.557 178.401 149.766 178 148M239.333 148.667C239.278 148.722 239.222 149.778 239.667 149.333C239.722 149.278 239.778 148.222 239.333 148.667M139.333 153.667C139.278 153.722 139.222 154.778 139.667 154.333C139.722 154.278 139.778 153.222 139.333 153.667M174.333 155.667C174.278 155.722 174.222 156.778 174.667 156.333C174.722 156.278 174.778 155.222 174.333 155.667M280.333 156.667C280.278 156.722 280.222 157.778 280.667 157.333C280.722 157.278 280.778 156.222 280.333 156.667M172.333 158.667C172.278 158.722 172.222 159.778 172.667 159.333C172.722 159.278 172.778 158.222 172.333 158.667M245.333 158.667C245.278 158.722 245.222 159.778 245.667 159.333C245.722 159.278 245.778 158.222 245.333 158.667M282.333 160.667C282.278 160.722 282.222 161.778 282.667 161.333C282.722 161.278 282.778 160.222 282.333 160.667M169.333 163.667C169.278 163.722 169.222 164.778 169.667 164.333C169.722 164.278 169.778 163.222 169.333 163.667M131.333 167.667C131.278 167.722 131.222 168.778 131.667 168.333C131.722 168.278 131.778 167.222 131.333 167.667M166.333 169.667C166.278 169.722 166.222 170.778 166.667 170.333C166.722 170.278 166.778 169.222 166.333 169.667M251.333 169.667C251.278 169.722 251.222 170.778 251.667 170.333C251.722 170.278 251.778 169.222 251.333 169.667M288.333 170.667C288.278 170.722 288.222 171.778 288.667 171.333C288.722 171.278 288.778 170.222 288.333 170.667M128.333 172.667C128.278 172.722 128.222 173.778 128.667 173.333C128.722 173.278 128.778 172.222 128.333 172.667M164.333 172.667C164.278 172.722 164.222 173.778 164.667 173.333C164.722 173.278 164.778 172.222 164.333 172.667z"/>-->
<path style="fill:#314d80; stroke:none;" d="M212 172C208.62 179.23 204.127 186.072 200.15 193C198.411 196.029 195.477 199.48 194.924 203C194.161 207.851 199.441 213.995 201.719 218C207.995 229.032 214.443 239.967 220.719 251C222.811 254.678 225.325 261.528 229.379 263.397C235.125 266.045 245.726 264 252 264L305 264C302.285 255.481 296.029 247.809 291.694 239.996C290.059 237.049 288.322 232.362 284.787 231.318C277.055 229.034 266.056 231.001 258 231C254.051 231 249.495 231.638 246.39 228.682C242.97 225.427 240.905 220.058 238.579 216C233.208 206.631 227.627 197.382 222.281 188C219.183 182.563 216.629 176.276 212 172z"/>
<!--<path style="fill:#8cb8c7; stroke:none;" d="M289.333 172.667C289.278 172.722 289.222 173.778 289.667 173.333C289.722 173.278 289.778 172.222 289.333 172.667M127.333 174.667C127.278 174.722 127.222 175.778 127.667 175.333C127.722 175.278 127.778 174.222 127.333 174.667M163.333 174.667C163.278 174.722 163.222 175.778 163.667 175.333C163.722 175.278 163.778 174.222 163.333 174.667M214 174L215 175L214 174M290.333 174.667C290.278 174.722 290.222 175.778 290.667 175.333C290.722 175.278 290.778 174.222 290.333 174.667M210 175L211 176L210 175M162.333 176.667C162.278 176.722 162.222 177.778 162.667 177.333C162.722 177.278 162.778 176.222 162.333 176.667M255.333 176.667C255.278 176.722 255.222 177.778 255.667 177.333C255.722 177.278 255.778 176.222 255.333 176.667M292.333 177.667C292.278 177.722 292.222 178.778 292.667 178.333C292.722 178.278 292.778 177.222 292.333 177.667M160.333 179.667C160.278 179.722 160.222 180.778 160.667 180.333C160.722 180.278 160.778 179.222 160.333 179.667M207 180L208 181L207 180M218 181L219 182L218 181M158.333 182.667C158.278 182.722 158.222 183.778 158.667 183.333C158.722 183.278 158.778 182.222 158.333 182.667M219 183L220 184L219 183M121.333 184.667C121.278 184.722 121.222 185.778 121.667 185.333C121.722 185.278 121.778 184.222 121.333 184.667M296.333 184.667C296.278 184.722 296.222 185.778 296.667 185.333C296.722 185.278 296.778 184.222 296.333 184.667M204 185L205 186L204 185M221 186L222 187L221 186M203 187L204 188L203 187M119.333 188.667C119.278 188.722 119.222 189.778 119.667 189.333C119.722 189.278 119.778 188.222 119.333 188.667M222 188L223 189L222 188M298.333 188.667C298.278 188.722 298.222 189.778 298.667 189.333C298.722 189.278 298.778 188.222 298.333 188.667M154.333 189.667C154.278 189.722 154.222 190.778 154.667 190.333C154.722 190.278 154.778 189.222 154.333 189.667M118 190C117.014 191.479 117 191.203 117 193C118.766 192.021 118.955 191.778 118 190M223 190L224 191L223 190M299 190C299.406 192.092 299.217 192.02 301 193C300.316 191.42 300.195 191.223 299 190M153.333 191.667C153.278 191.722 153.222 192.778 153.667 192.333C153.722 192.278 153.778 191.222 153.333 191.667M200 192L201 193L200 192M152.333 193.667C152.278 193.722 152.222 194.778 152.667 194.333C152.722 194.278 152.778 193.222 152.333 193.667M199 194L200 195L199 194M226 195L227 196L226 195M302.333 195.667C302.278 195.722 302.222 196.778 302.667 196.333C302.722 196.278 302.778 195.222 302.333 195.667M149 196C147.112 199.546 145.683 203.034 145 207C147.83 203.743 149.783 200.138 151 196L149 196M267 197L268 200C268.685 198.752 268.749 198.452 269 197L267 197M303 197C303.406 199.092 303.217 199.02 305 200C304.316 198.42 304.195 198.223 303 197M196 199L197 200L196 199M229 200L230 201L229 200M269.333 200.667C269.278 200.722 269.222 201.778 269.667 201.333C269.722 201.278 269.778 200.222 269.333 200.667M230 202L231 203L230 202M307 203L308 209C308.889 206.492 308.495 205.185 307 203M194 205L195 206L194 205M143 207L143 210C144.015 208.861 144.309 208.388 145 207L143 207M233 207L234 208L233 207M107.333 208.667C107.278 208.722 107.222 209.778 107.667 209.333C107.722 209.278 107.778 208.222 107.333 208.667M196 208L197 209L196 208M142 210L141 214C142.146 212.36 142.393 211.924 142 210M197 210L198 211L197 210M105.333 212.667C105.278 212.722 105.222 213.778 105.667 213.333C105.722 213.278 105.778 212.222 105.333 212.667M236 212L237 213L236 212M276.333 212.667C276.278 212.722 276.222 213.778 276.667 213.333C276.722 213.278 276.778 212.222 276.333 212.667M312.333 212.667C312.278 212.722 312.222 213.778 312.667 213.333C312.722 213.278 312.778 212.222 312.333 212.667M140.333 214.667C140.278 214.722 140.222 215.778 140.667 215.333C140.722 215.278 140.778 214.222 140.333 214.667M237 214L238 215L237 214M277.333 214.667C277.278 214.722 277.222 215.778 277.667 215.333C277.722 215.278 277.778 214.222 277.333 214.667M313 214C313.651 216.434 314.16 217.283 316 219C315.199 216.896 314.503 215.663 313 214M200 215L201 216L200 215M138.333 217.667C138.278 217.722 138.222 218.778 138.667 218.333C138.722 218.278 138.778 217.222 138.333 217.667M201 217L202 218L201 217M240 219L241 220L240 219M316.333 219.667C316.278 219.722 316.222 220.778 316.667 220.333C316.722 220.278 316.778 219.222 316.333 219.667M136.333 221.667C136.278 221.722 136.222 222.778 136.667 222.333C136.722 222.278 136.778 221.222 136.333 221.667M241 221L242 222L241 221M317 221C317.406 223.092 317.217 223.02 319 224C318.316 222.42 318.195 222.223 317 221M204 222L205 223L204 222M134 223L134 226C134.696 224.446 134.696 224.554 134 223M283 223L283 226C283.696 224.446 283.696 224.554 283 223M205 224L206 225L205 224M97.3333 226.667C97.2778 226.722 97.2222 227.778 97.6667 227.333C97.7222 227.278 97.7778 226.222 97.3333 226.667M244 226L245 227L244 226M207 227L208 228L207 227M132.333 228.667C132.278 228.722 132.222 229.778 132.667 229.333C132.722 229.278 132.778 228.222 132.333 228.667M245 228L246 229L245 228M95.3333 229.667C95.2778 229.722 95.2222 230.778 95.6667 230.333C95.7222 230.278 95.7778 229.222 95.3333 229.667M208 229L209 230L208 229M322.333 229.667C322.278 229.722 322.222 230.778 322.667 230.333C322.722 230.278 322.778 229.222 322.333 229.667z"/>-->
<path style="fill:#314d80; stroke:none;" d="M113 264L191 264C186.051 252.516 177.278 242.752 173 231L145 231C141.304 231 135.813 230 132.39 231.603C129.405 233.001 127.832 237.315 126.27 240C121.817 247.654 115.69 255.557 113 264z"/>
<!--<path style="fill:#8cb8c7; stroke:none;" d="M93.3333 233.667C93.2778 233.722 93.2222 234.778 93.6667 234.333C93.7222 234.278 93.7778 233.222 93.3333 233.667M173 233L174 234L173 233M324.333 233.667C324.278 233.722 324.222 234.778 324.667 234.333C324.722 234.278 324.778 233.222 324.333 233.667M211 234L212 235L211 234M128 236L129 237L128 236M212 236L213 237L212 236M289 236L290 237L289 236M176 238L177 239L176 238M89 239L89 242C89.6961 240.446 89.6961 240.554 89 239M177 240L178 241L177 240M215 241L216 242L215 241M329.333 242.667C329.278 242.722 329.222 243.778 329.667 243.333C329.722 243.278 329.778 242.222 329.333 242.667M124 243L125 244L124 243M216 243L217 244L216 243M293 243L294 244L293 243M87 244C86.0143 245.479 86 245.203 86 247C87.2892 245.557 87.4009 245.766 87 244M330 244C330.684 245.58 330.805 245.777 332 247C331.316 245.42 331.195 245.223 330 244M180 245L181 246L180 245M294 245L295 246L294 245M85.3333 247.667C85.2778 247.722 85.2222 248.778 85.6667 248.333C85.7222 248.278 85.7778 247.222 85.3333 247.667M332.333 247.667C332.278 247.722 332.222 248.778 332.667 248.333C332.722 248.278 332.778 247.222 332.333 247.667M121 248L122 249L121 248M219 248L220 249L219 248M296 248L297 249L296 248M83 250L83 253C83.6961 251.446 83.6961 251.554 83 250M334 250L334 253C334.696 251.446 334.696 251.554 334 250M184 252L185 253L184 252M80 255L79 259C80.303 257.332 80.553 257.008 80 255M223 255L224 256L223 255M337 255L338 259C338.393 257.076 338.146 256.64 337 255M226 260L227 261L226 260M227 262L228 263L227 262z"/>-->
</svg>
