<svg id="svg" version="1.1" xmlns="http://www.w3.org/2000/svg" xmlns:xlink="http://www.w3.org/1999/xlink" width="400" height="345.9637561779242" viewBox="0, 0, 400,345.9637561779242"><g id="svgg"><path id="path0" d="M99.383 172.482 C 44.722 267.347,0.000 345.189,0.000 345.464 C 0.000 345.907,3.266 345.963,28.748 345.957 L 57.496 345.951 128.488 222.410 C 172.217 146.313,199.577 99.023,199.732 99.270 C 199.871 99.490,231.829 155.084,270.750 222.811 L 341.516 345.951 369.934 345.957 C 385.564 345.961,398.353 345.868,398.353 345.750 C 398.353 345.331,199.253 -0.000,199.012 -0.000 C 198.876 -0.000,154.043 77.617,99.383 172.482 " stroke="none" fill="#4ddbef" fill-rule="evenodd"></path><path id="path1" d="M191.680 232.059 C 184.114 245.330,177.924 256.282,177.924 256.399 C 177.924 256.515,183.486 266.002,190.283 277.481 C 197.081 288.960,208.980 309.061,216.725 322.149 L 230.807 345.946 267.628 345.955 L 304.448 345.964 304.448 321.254 L 304.448 296.545 280.513 296.460 L 256.578 296.376 231.337 252.154 C 217.454 227.832,205.947 207.931,205.766 207.931 C 205.585 207.931,199.246 218.788,191.680 232.059 M90.527 296.787 L 95.552 296.887 95.552 321.425 L 95.552 345.964 134.129 345.964 L 172.706 345.964 172.055 344.893 C 168.533 339.103,152.589 311.961,148.740 305.203 L 143.822 296.567 114.662 296.627 C 98.624 296.660,87.764 296.732,90.527 296.787 " stroke="none" fill="#325086" fill-rule="evenodd"></path><path id="path2" d="M304.448 321.257 L 304.448 345.974 322.923 345.958 C 334.351 345.949,341.358 345.824,341.293 345.632 C 341.234 345.461,334.885 334.348,327.183 320.936 L 313.180 296.551 308.814 296.546 L 304.448 296.540 304.448 321.257 M84.688 298.600 C 84.147 299.551,77.860 310.486,70.718 322.900 C 63.576 335.313,57.796 345.576,57.874 345.707 C 57.953 345.837,66.462 345.950,76.784 345.958 L 95.552 345.973 95.552 321.421 L 95.552 296.870 90.612 296.870 L 85.673 296.870 84.688 298.600 " stroke="none" fill="#1d3563" fill-rule="evenodd"></path></g></svg>